<?xml version="1.0" standalone="no"?>
<!DOCTYPE svg PUBLIC "-//W3C//DTD SVG 20010904//EN"
 "http://www.w3.org/TR/2001/REC-SVG-20010904/DTD/svg10.dtd">
<svg version="1.0" xmlns="http://www.w3.org/2000/svg"
 width="512.000000pt" height="512.000000pt" viewBox="0 0 512.000000 512.000000"
 preserveAspectRatio="xMidYMid meet">
<g transform="translate(0.000000,512.000000) scale(0.100000,-0.100000)"
stroke="none">
<path d="M1270 4684 c-196 -42 -359 -202 -405 -395 -13 -55 -15 -233 -15
-1301 0 -855 3 -1253 11 -1290 29 -140 140 -289 264 -355 130 -68 -9 -63 1863
-63 l1693 0 76 25 c174 59 303 195 349 370 11 40 14 292 14 1310 0 1378 2
1317 -58 1429 -15 28 -56 81 -91 119 -74 78 -183 138 -285 156 -41 8 -578 11
-1705 10 -1375 0 -1657 -3 -1711 -15z m3379 -450 c17 -14 33 -39 36 -57 3 -18
4 -365 3 -772 l-3 -739 -347 404 c-191 223 -363 415 -382 428 -146 99 -345 88
-472 -25 -18 -15 -211 -243 -429 -506 l-398 -478 -147 145 c-167 165 -226 202
-341 212 -73 7 -170 -13 -228 -48 -20 -11 -177 -161 -348 -332 l-313 -311 0
995 c0 651 4 1008 10 1032 6 20 22 46 37 58 26 20 29 20 1659 20 l1632 0 31
-26z"/>
<path d="M1830 4049 c-123 -24 -245 -122 -302 -244 -23 -51 -31 -84 -35 -148
-12 -184 74 -335 235 -414 75 -37 78 -38 192 -38 114 0 117 1 192 38 161 79
247 230 235 414 -16 260 -257 443 -517 392z"/>
<path d="M528 3210 c-4 -8 -123 -400 -264 -870 -243 -809 -257 -860 -262 -952
-3 -79 0 -109 17 -166 39 -130 137 -244 256 -298 28 -12 799 -224 1715 -470
l1665 -448 126 0 126 -1 85 42 c95 47 171 119 212 202 22 42 226 676 226 700
0 8 -456 11 -1532 11 -868 0 -1574 5 -1629 10 -290 28 -532 199 -653 462 -74
158 -69 105 -76 993 -3 440 -8 793 -12 785z"/>
</g>
</svg>
