<?xml version="1.0" standalone="no"?>
<!DOCTYPE svg PUBLIC "-//W3C//DTD SVG 20010904//EN"
 "http://www.w3.org/TR/2001/REC-SVG-20010904/DTD/svg10.dtd">
<svg version="1.0" xmlns="http://www.w3.org/2000/svg"
 width="512.000000pt" height="512.000000pt" viewBox="0 0 512.000000 512.000000"
 preserveAspectRatio="xMidYMid meet">

<g transform="translate(0.000000,512.000000) scale(0.100000,-0.100000)"
fill="#000000" stroke="none">
<path d="M1010 4470 c-150 -21 -317 -85 -450 -171 -136 -89 -307 -285 -388
-444 -171 -339 -216 -773 -126 -1215 80 -393 259 -731 539 -1018 394 -406 906
-654 1562 -756 125 -20 159 -11 188 50 16 34 17 42 4 79 -13 38 -21 43 -144
105 -398 199 -631 431 -691 687 -31 133 -4 284 68 378 50 64 84 86 186 121
326 112 542 454 583 922 29 333 -84 655 -314 898 -174 183 -362 292 -597 345
-99 23 -321 33 -420 19z"/>
<path d="M3570 4470 c-150 -21 -317 -85 -450 -171 -136 -89 -307 -285 -388
-444 -171 -339 -216 -773 -126 -1215 80 -393 259 -731 539 -1018 394 -406 906
-654 1562 -756 125 -20 159 -11 188 50 16 34 17 42 4 79 -13 38 -21 43 -144
105 -398 199 -631 431 -691 687 -31 133 -4 284 68 378 50 64 84 86 186 121
326 112 542 454 583 922 29 333 -84 655 -314 898 -174 183 -362 292 -597 345
-99 23 -321 33 -420 19z"/>
</g>
</svg>
